<?xml version="1.0" encoding="UTF-8" standalone="no"?>
<svg
   xmlns:dc="http://purl.org/dc/elements/1.1/"
   xmlns:cc="http://creativecommons.org/ns#"
   xmlns:rdf="http://www.w3.org/1999/02/22-rdf-syntax-ns#"
   xmlns:svg="http://www.w3.org/2000/svg"
   xmlns="http://www.w3.org/2000/svg"
   xmlns:sodipodi="http://sodipodi.sourceforge.net/DTD/sodipodi-0.dtd"
   xmlns:inkscape="http://www.inkscape.org/namespaces/inkscape"
   width="78.708725mm"
   height="17.019741mm"
   viewBox="0 0 78.708725 17.019741"
   version="1.1"
   id="svg23"
   inkscape:version="1.0.2 (e86c870879, 2021-01-15, custom)"
   sodipodi:docname="BigLogo.svg">
  <defs
     id="defs17" />
  <sodipodi:namedview
     id="base"
     pagecolor="#ffffff"
     bordercolor="#666666"
     borderopacity="1.0"
     inkscape:pageopacity="0.0"
     inkscape:pageshadow="2"
     inkscape:zoom="2.8"
     inkscape:cx="138.01807"
     inkscape:cy="72.128941"
     inkscape:document-units="mm"
     inkscape:current-layer="layer1"
     inkscape:document-rotation="0"
     showgrid="false"
     fit-margin-top="0"
     fit-margin-left="0"
     fit-margin-right="0"
     fit-margin-bottom="0"
     inkscape:window-width="1920"
     inkscape:window-height="1001"
     inkscape:window-x="-9"
     inkscape:window-y="-9"
     inkscape:window-maximized="1" />
  <metadata
     id="metadata20">
    <rdf:RDF>
      <cc:Work
         rdf:about="">
        <dc:format>image/svg+xml</dc:format>
        <dc:type
           rdf:resource="http://purl.org/dc/dcmitype/StillImage" />
        <dc:title />
      </cc:Work>
    </rdf:RDF>
  </metadata>
  <g
     inkscape:label="Layer 1"
     inkscape:groupmode="layer"
     id="layer1"
     transform="translate(-16.666457,-154.1871)">
    <g
       id="g105"
       transform="translate(6.4255952,0.46565249)">
      <polyline
         points="7 8 3 12 7 16"
         id="polyline38"
         style="fill:none;stroke:#000000;stroke-width:1.5;stroke-linecap:round;stroke-linejoin:round"
         transform="matrix(0.72986599,0,0,0.70153355,8.5986405,153.81291)"
         inkscape:export-xdpi="96"
         inkscape:export-ydpi="96" />
      <polyline
         points="17 8 21 12 17 16"
         id="polyline40"
         style="fill:none;stroke:#000000;stroke-width:1.5;stroke-linecap:round;stroke-linejoin:round"
         transform="matrix(0.72986599,0,0,0.70153355,22.249632,153.81291)"
         inkscape:export-xdpi="96"
         inkscape:export-ydpi="96" />
      <line
         x1="33.526089"
         y1="156.61905"
         x2="30.606627"
         y2="167.84358"
         id="line42"
         style="fill:none;stroke:#000000;stroke-width:1.07334;stroke-linecap:round;stroke-linejoin:round"
         inkscape:export-xdpi="96"
         inkscape:export-ydpi="96" />
      <path
         d="m 20.9611,163.79916 1.91064,-3.08855"
         id="path78"
         style="fill:none;stroke:#000000;stroke-width:1.01021;stroke-linecap:round;stroke-linejoin:round" />
      <circle
         cx="16.861002"
         cy="160.88437"
         r="1.3469443"
         id="circle70"
         style="fill:none;stroke:#000000;stroke-width:1.01021;stroke-linecap:round;stroke-linejoin:round" />
      <circle
         cx="23.59572"
         cy="159.53743"
         r="1.3469443"
         id="circle72"
         style="fill:none;stroke:#000000;stroke-width:1.01021;stroke-linecap:round;stroke-linejoin:round" />
      <circle
         cx="20.228359"
         cy="164.9252"
         r="1.3469443"
         id="circle74"
         style="fill:none;stroke:#000000;stroke-width:1.01021;stroke-linecap:round;stroke-linejoin:round" />
      <line
         x1="17.642229"
         y1="161.9754"
         x2="19.218151"
         y2="163.91499"
         id="line76"
         style="fill:none;stroke:#000000;stroke-width:1.01021;stroke-linecap:round;stroke-linejoin:round" />
      <circle
         cx="-62.869499"
         cy="151.26205"
         r="1.3469443"
         id="circle29"
         style="fill:none;stroke:#000000;stroke-width:1.01021;stroke-linecap:round;stroke-linejoin:round"
         transform="rotate(-32.83198)" />
      <line
         x1="25.41152"
         y1="160.11002"
         x2="27.787317"
         y2="160.88536"
         id="line31"
         style="fill:none;stroke:#000000;stroke-width:1.01021;stroke-linecap:round;stroke-linejoin:round" />
    </g>
    <path
       d="m 50.406894,154.1871 q 1.132414,0 1.767412,0.35983 0.634997,0.34925 0.825497,1.17475 0.190499,0.82549 -0.01058,2.24366 -0.169333,1.18532 -0.433916,1.91557 -0.264582,0.73025 -0.677331,1.12183 -0.412749,0.39158 -1.015997,0.53975 -0.603248,0.13758 -1.428745,0.13758 -0.582082,0 -1.248829,-0.0317 -0.656165,-0.0212 -1.24883,-0.0635 l 0.539748,-0.84666 q 0.433916,0.0212 0.984247,0.0423 0.550332,0.0106 0.963081,0.0106 0.592664,0 1.005413,-0.11642 0.412749,-0.11642 0.687915,-0.42333 0.285749,-0.30692 0.465665,-0.87842 0.179916,-0.57149 0.306915,-1.47107 0.127,-0.87842 0.116417,-1.42875 -0.01058,-0.56091 -0.179916,-0.85725 -0.169333,-0.30691 -0.529165,-0.42333 -0.349249,-0.127 -0.910164,-0.127 -0.275166,0 -0.645581,0.0106 -0.359833,0 -0.740831,0.0106 -0.370416,0 -0.645582,0.0106 l -0.391582,-0.81491 q 0.359832,-0.0318 0.793748,-0.0529 0.444498,-0.0212 0.86783,-0.0318 0.433916,-0.0106 0.783164,-0.0106 z m -1.386412,0.0953 -1.02658,7.30247 h -1.05833 l 1.02658,-7.30247 z"
       style="font-style:italic;font-variant:normal;font-weight:500;font-stretch:normal;font-size:10.5833px;line-height:0.85;font-family:'Exo 2';-inkscape-font-specification:'Exo 2, Medium Italic';font-variant-ligatures:normal;font-variant-caps:normal;font-variant-numeric:normal;font-variant-east-asian:normal;letter-spacing:-0.8255px;fill:#000000;fill-opacity:1;stroke:none;stroke-width:0.264583"
       id="path21" />
    <path
       d="m 55.889025,156.29317 q 0.275166,0 0.592665,0.0212 0.317499,0.0106 0.634998,0.0529 0.328082,0.0318 0.634998,0.0741 0.317499,0.0423 0.571498,0.0952 l -0.529165,0.61383 q -0.550332,-0.0212 -0.99483,-0.0317 -0.433916,-0.0106 -0.687915,-0.0106 -0.497415,0 -0.825497,0.0635 -0.317499,0.0635 -0.507999,0.26458 -0.190499,0.1905 -0.317499,0.5715 -0.116416,0.37041 -0.201082,0.98425 -0.105833,0.75141 -0.09525,1.15357 0.01058,0.40217 0.169333,0.55034 0.169333,0.14816 0.507998,0.14816 0.370416,0 0.730248,-0.16933 0.359832,-0.16933 0.740831,-0.48683 0.391582,-0.32808 0.793747,-0.77258 l 0.201083,0.45508 q -0.253999,0.508 -0.666748,0.92075 -0.412748,0.41274 -0.93133,0.66674 -0.518582,0.254 -1.12183,0.254 -0.624415,0 -0.973663,-0.26458 -0.349249,-0.26458 -0.444499,-0.87841 -0.08467,-0.61383 0.0635,-1.62983 0.126999,-0.87842 0.338665,-1.40758 0.22225,-0.52917 0.539749,-0.79375 0.328082,-0.27516 0.761997,-0.35983 0.444499,-0.0847 1.015997,-0.0847 z m 1.407579,0.23284 1.02658,0.0106 -0.709081,5.04823 h -0.804331 l 0.0635,-1.20649 -0.116417,-0.0952 z"
       style="font-style:italic;font-variant:normal;font-weight:500;font-stretch:normal;font-size:10.5833px;line-height:0.85;font-family:'Exo 2';-inkscape-font-specification:'Exo 2, Medium Italic';font-variant-ligatures:normal;font-variant-caps:normal;font-variant-numeric:normal;font-variant-east-asian:normal;letter-spacing:-0.8255px;fill:#000000;fill-opacity:1;stroke:none;stroke-width:0.264583"
       id="path23" />
    <path
       d="m 60.693837,154.90676 -0.730248,5.23873 q -0.05292,0.34925 0.0635,0.49742 0.126999,0.13758 0.486832,0.13758 h 0.783164 l 0.04233,0.75142 q -0.179916,0.0529 -0.423332,0.0847 -0.232833,0.0318 -0.455082,0.0423 -0.211666,0.0212 -0.338666,0.0212 -0.677331,0 -0.99483,-0.37041 -0.306915,-0.37042 -0.201082,-1.04775 l 0.761997,-5.35515 z m 1.396995,1.51341 -0.116416,0.762 h -3.555989 l 0.09525,-0.70908 1.015997,-0.0529 z"
       style="font-style:italic;font-variant:normal;font-weight:500;font-stretch:normal;font-size:10.5833px;line-height:0.85;font-family:'Exo 2';-inkscape-font-specification:'Exo 2, Medium Italic';font-variant-ligatures:normal;font-variant-caps:normal;font-variant-numeric:normal;font-variant-east-asian:normal;letter-spacing:-0.8255px;fill:#000000;fill-opacity:1;stroke:none;stroke-width:0.264583"
       id="path25" />
    <path
       d="m 64.397983,156.29317 q 0.275166,0 0.592665,0.0212 0.317499,0.0106 0.634998,0.0529 0.328082,0.0318 0.634998,0.0741 0.317499,0.0423 0.571498,0.0952 l -0.529165,0.61383 q -0.550332,-0.0212 -0.99483,-0.0317 -0.433916,-0.0106 -0.687915,-0.0106 -0.497415,0 -0.825497,0.0635 -0.317499,0.0635 -0.507999,0.26458 -0.190499,0.1905 -0.317499,0.5715 -0.116416,0.37041 -0.201082,0.98425 -0.105833,0.75141 -0.09525,1.15357 0.01058,0.40217 0.169333,0.55034 0.169333,0.14816 0.507998,0.14816 0.370416,0 0.730248,-0.16933 0.359832,-0.16933 0.740831,-0.48683 0.391582,-0.32808 0.793747,-0.77258 l 0.201083,0.45508 q -0.253999,0.508 -0.666748,0.92075 -0.412749,0.41274 -0.93133,0.66674 -0.518582,0.254 -1.12183,0.254 -0.624415,0 -0.973664,-0.26458 -0.349249,-0.26458 -0.444498,-0.87841 -0.08467,-0.61383 0.0635,-1.62983 0.126999,-0.87842 0.338665,-1.40758 0.222249,-0.52917 0.539748,-0.79375 0.328083,-0.27516 0.761998,-0.35983 0.444499,-0.0847 1.015997,-0.0847 z m 1.407579,0.23284 1.02658,0.0106 -0.709081,5.04823 H 65.31873 l 0.0635,-1.20649 -0.116417,-0.0952 z"
       style="font-style:italic;font-variant:normal;font-weight:500;font-stretch:normal;font-size:10.5833px;line-height:0.85;font-family:'Exo 2';-inkscape-font-specification:'Exo 2, Medium Italic';font-variant-ligatures:normal;font-variant-caps:normal;font-variant-numeric:normal;font-variant-east-asian:normal;letter-spacing:-0.8255px;fill:#000000;fill-opacity:1;stroke:none;stroke-width:0.264583"
       id="path27" />
    <path
       d="m 71.933248,154.28235 -1.02658,7.30247 h -1.05833 l 1.02658,-7.30247 z m 2.317742,0 -0.116416,0.91016 h -5.704398 l 0.126999,-0.91016 z"
       style="font-style:italic;font-variant:normal;font-weight:500;font-stretch:normal;font-size:10.5833px;line-height:0.85;font-family:'Exo 2';-inkscape-font-specification:'Exo 2, Medium Italic';font-variant-ligatures:normal;font-variant-caps:normal;font-variant-numeric:normal;font-variant-east-asian:normal;letter-spacing:-0.8255px;fill:#000000;fill-opacity:1;stroke:none;stroke-width:0.264583"
       id="path29" />
    <path
       d="m 75.224641,156.29317 q 0.888997,0 1.407578,0.27517 0.518582,0.26458 0.698498,0.86783 0.179916,0.60325 0.03175,1.61924 -0.137583,0.97367 -0.455082,1.56633 -0.306915,0.58208 -0.878414,0.84667 -0.560915,0.254 -1.449912,0.254 -0.878414,0 -1.407579,-0.26459 -0.518581,-0.27516 -0.709081,-0.87841 -0.179916,-0.61383 -0.04233,-1.60866 0.137583,-0.97366 0.444499,-1.56633 0.317499,-0.59266 0.888997,-0.84666 0.571498,-0.26459 1.471079,-0.26459 z m 0,0.8255 q -0.550332,0 -0.888998,0.16933 -0.338665,0.15875 -0.539748,0.58209 -0.190499,0.41274 -0.306916,1.18532 -0.105833,0.70909 -0.04233,1.11125 0.0635,0.40217 0.338666,0.56092 0.275166,0.15875 0.804331,0.15875 0.550331,0 0.888997,-0.16934 0.338665,-0.16933 0.529165,-0.59266 0.201082,-0.42333 0.306915,-1.15358 0.105833,-0.73025 0.04233,-1.12183 -0.0635,-0.40217 -0.338666,-0.56092 -0.275166,-0.16933 -0.793746,-0.16933 z"
       style="font-style:italic;font-variant:normal;font-weight:500;font-stretch:normal;font-size:10.5833px;line-height:0.85;font-family:'Exo 2';-inkscape-font-specification:'Exo 2, Medium Italic';font-variant-ligatures:normal;font-variant-caps:normal;font-variant-numeric:normal;font-variant-east-asian:normal;letter-spacing:-0.8255px;fill:#000000;fill-opacity:1;stroke:none;stroke-width:0.264583"
       id="path31" />
    <path
       d="m 82.590576,154.1871 q 1.132413,0 1.767411,0.35983 0.634998,0.34925 0.825497,1.17475 0.1905,0.82549 -0.01058,2.24366 -0.169333,1.18532 -0.433915,1.91557 -0.264583,0.73025 -0.677331,1.12183 -0.412749,0.39158 -1.015997,0.53975 -0.603248,0.13758 -1.428746,0.13758 -0.582081,0 -1.248829,-0.0317 -0.656165,-0.0212 -1.248829,-0.0635 l 0.539748,-0.84666 q 0.433915,0.0212 0.984247,0.0423 0.550331,0.0106 0.96308,0.0106 0.592665,0 1.005414,-0.11642 0.412748,-0.11642 0.687914,-0.42333 0.285749,-0.30692 0.465665,-0.87842 0.179916,-0.57149 0.306916,-1.47107 0.127,-0.87842 0.116416,-1.42875 -0.01058,-0.56091 -0.179916,-0.85725 -0.169333,-0.30691 -0.529165,-0.42333 -0.349249,-0.127 -0.910164,-0.127 -0.275165,0 -0.645581,0.0106 -0.359832,0 -0.740831,0.0106 -0.370415,0 -0.645581,0.0106 l -0.391582,-0.81491 q 0.359832,-0.0318 0.793747,-0.0529 0.444499,-0.0212 0.867831,-0.0318 0.433915,-0.0106 0.783164,-0.0106 z m -1.386412,0.0953 -1.02658,7.30247 h -1.05833 l 1.02658,-7.30247 z"
       style="font-style:italic;font-variant:normal;font-weight:500;font-stretch:normal;font-size:10.5833px;line-height:0.85;font-family:'Exo 2';-inkscape-font-specification:'Exo 2, Medium Italic';font-variant-ligatures:normal;font-variant-caps:normal;font-variant-numeric:normal;font-variant-east-asian:normal;letter-spacing:-0.8255px;fill:#000000;fill-opacity:1;stroke:none;stroke-width:0.264583"
       id="path33" />
    <path
       d="m 88.231456,156.29317 q 0.846664,0 1.301746,0.1905 0.455082,0.17992 0.613831,0.56092 0.15875,0.37041 0.0635,0.92075 -0.07408,0.49741 -0.306916,0.79374 -0.232832,0.29633 -0.645581,0.4445 -0.402165,0.13758 -1.02658,0.1905 l -2.539992,0.23283 0.09525,-0.70908 2.381242,-0.23283 q 0.338666,-0.0317 0.539748,-0.10583 0.211666,-0.0741 0.328083,-0.24342 0.126999,-0.16933 0.179916,-0.45508 0.05292,-0.35983 -0.05292,-0.52917 -0.105833,-0.16933 -0.370415,-0.21166 -0.253999,-0.0423 -0.666748,-0.0317 -0.402165,0 -0.687915,0.0741 -0.275165,0.0635 -0.465665,0.254 -0.190499,0.1905 -0.317499,0.53975 -0.116416,0.34925 -0.211666,0.91016 -0.126999,0.8255 -0.02117,1.25941 0.116416,0.42334 0.433915,0.5715 0.317499,0.14817 0.836081,0.14817 0.285749,0 0.624414,-0.0106 0.338666,-0.0212 0.677331,-0.0529 0.338666,-0.0317 0.624415,-0.0635 l 0.07408,0.66675 q -0.275166,0.11641 -0.666748,0.17991 -0.380998,0.0741 -0.77258,0.0952 -0.391583,0.0317 -0.709082,0.0317 -0.920747,0 -1.439328,-0.29633 -0.507999,-0.30691 -0.677331,-0.93133 -0.169333,-0.635 -0.05292,-1.59808 0.105833,-0.77258 0.306916,-1.26999 0.211666,-0.508 0.550331,-0.79375 0.338666,-0.29633 0.825498,-0.41275 0.497415,-0.11642 1.174746,-0.11642 z"
       style="font-style:italic;font-variant:normal;font-weight:500;font-stretch:normal;font-size:10.5833px;line-height:0.85;font-family:'Exo 2';-inkscape-font-specification:'Exo 2, Medium Italic';font-variant-ligatures:normal;font-variant-caps:normal;font-variant-numeric:normal;font-variant-east-asian:normal;letter-spacing:-0.8255px;fill:#000000;fill-opacity:1;stroke:none;stroke-width:0.264583"
       id="path35" />
    <path
       d="m 95.37518,156.42017 q -0.105833,0.51859 -0.264582,1.04775 -0.148166,0.52917 -0.328082,1.00541 -0.179916,0.47625 -0.349249,0.86783 -0.232833,0.53975 -0.476249,0.97367 -0.243416,0.43391 -0.412748,0.67733 -0.137583,0.21166 -0.296333,0.34925 -0.148166,0.127 -0.338665,0.1905 -0.1905,0.0529 -0.476249,0.0529 h -0.86783 q -0.127,0 -0.22225,-0.0741 -0.08467,-0.0847 -0.105833,-0.20108 l -0.96308,-4.88949 h 1.079497 l 0.709081,4.39207 h 0.158749 q 0.1905,0 0.317499,-0.0635 0.127,-0.0635 0.264583,-0.27516 0.137583,-0.1905 0.338665,-0.5715 0.201083,-0.381 0.412749,-0.92075 0.296332,-0.67733 0.455082,-1.25941 0.169333,-0.59267 0.296332,-1.30175 z"
       style="font-style:italic;font-variant:normal;font-weight:500;font-stretch:normal;font-size:10.5833px;line-height:0.85;font-family:'Exo 2';-inkscape-font-specification:'Exo 2, Medium Italic';font-variant-ligatures:normal;font-variant-caps:normal;font-variant-numeric:normal;font-variant-east-asian:normal;letter-spacing:-0.8255px;fill:#000000;fill-opacity:1;stroke:none;stroke-width:0.264583"
       id="path37" />
    <g
       id="g972"
       style="fill-opacity:1;fill:#5eaaa8">
      <path
         d="m 82.947835,165.76702 v 5.29165 h -2.21191 v -5.29165 z m -0.634998,-2.42357 q 0.645581,0 0.645581,0.65616 v 0.53975 q 0,0.65616 -0.645581,0.65616 h -0.941914 q -0.645581,0 -0.645581,-0.65616 v -0.53975 q 0,-0.65616 0.645581,-0.65616 z"
         style="font-style:normal;font-variant:normal;font-weight:900;font-stretch:normal;font-size:10.5833px;line-height:0.85;font-family:'Exo 2';-inkscape-font-specification:'Exo 2, Heavy';font-variant-ligatures:normal;font-variant-caps:normal;font-variant-numeric:normal;font-variant-east-asian:normal;letter-spacing:-0.452437px;fill:#5eaaa8;fill-opacity:1;stroke:none;stroke-width:0.264583"
         id="path53" />
      <path
         d="m 50.142312,163.6292 q 0.571498,0 0.973664,0.0318 0.402165,0.0317 0.730247,0.0952 0.338666,0.0529 0.698498,0.15875 l -0.169333,1.67216 q -0.370415,-0.0106 -0.687914,-0.0106 -0.317499,0 -0.677331,0 -0.359833,-0.0106 -0.867831,-0.0106 -0.359832,0 -0.560915,0.15875 -0.190499,0.14817 -0.264582,0.55033 -0.07408,0.39158 -0.07408,1.13241 0,0.74084 0.07408,1.143 0.07408,0.39158 0.264582,0.55033 0.201083,0.14817 0.560915,0.14817 0.793747,0 1.322912,-0.0106 0.539749,-0.0212 1.068914,-0.0741 l 0.169332,1.67216 q -0.550331,0.1905 -1.132413,0.26459 -0.571498,0.0847 -1.428745,0.0847 -1.206496,0 -1.936744,-0.35983 -0.730248,-0.37042 -1.05833,-1.19591 -0.317499,-0.8255 -0.317499,-2.2225 0,-1.39699 0.317499,-2.22249 0.328082,-0.8255 1.05833,-1.18533 0.730248,-0.37041 1.936744,-0.37041 z"
         style="font-style:normal;font-variant:normal;font-weight:900;font-stretch:normal;font-size:10.5833px;line-height:0.85;font-family:'Exo 2';-inkscape-font-specification:'Exo 2, Heavy';font-variant-ligatures:normal;font-variant-caps:normal;font-variant-numeric:normal;font-variant-east-asian:normal;letter-spacing:-0.452437px;fill:#5eaaa8;fill-opacity:1;stroke:none;stroke-width:0.264583"
         id="path39" />
      <path
         d="m 55.680018,165.61886 q 1.079497,0 1.725078,0.27516 0.656164,0.26459 0.941914,0.87842 0.285749,0.61383 0.285749,1.65099 0,1.016 -0.285749,1.61925 -0.28575,0.60324 -0.941914,0.87841 -0.645581,0.26458 -1.725078,0.26458 -1.079497,0 -1.735661,-0.26458 -0.645581,-0.27517 -0.941914,-0.87841 -0.285749,-0.60325 -0.285749,-1.61925 0,-1.03716 0.285749,-1.65099 0.296333,-0.61383 0.941914,-0.87842 0.656164,-0.27516 1.735661,-0.27516 z m 0,1.50283 q -0.253999,0 -0.391582,0.10583 -0.137583,0.0952 -0.190499,0.37041 -0.05292,0.27517 -0.05292,0.8255 0,0.52917 0.05292,0.80433 0.05292,0.26458 0.190499,0.35983 0.137583,0.0952 0.391582,0.0952 0.253999,0 0.391582,-0.0952 0.137583,-0.0952 0.179916,-0.35983 0.05292,-0.27516 0.05292,-0.80433 0,-0.55033 -0.05292,-0.8255 -0.04233,-0.27516 -0.179916,-0.37041 -0.137583,-0.10583 -0.391582,-0.10583 z"
         style="font-style:normal;font-variant:normal;font-weight:900;font-stretch:normal;font-size:10.5833px;line-height:0.85;font-family:'Exo 2';-inkscape-font-specification:'Exo 2, Heavy';font-variant-ligatures:normal;font-variant-caps:normal;font-variant-numeric:normal;font-variant-east-asian:normal;letter-spacing:-0.452437px;fill:#5eaaa8;fill-opacity:1;stroke:none;stroke-width:0.264583"
         id="path41" />
      <path
         d="m 61.133042,163.65036 v 5.48215 q 0,0.20109 0.127,0.29633 0.137583,0.0847 0.402165,0.0847 h 0.359832 l 0.243416,1.41816 q -0.158749,0.0952 -0.455082,0.14817 -0.285749,0.0635 -0.592665,0.0953 -0.296332,0.0317 -0.507998,0.0317 -0.836081,0 -1.312329,-0.39158 -0.476249,-0.39159 -0.476249,-1.09008 v -6.07482 z"
         style="font-style:normal;font-variant:normal;font-weight:900;font-stretch:normal;font-size:10.5833px;line-height:0.85;font-family:'Exo 2';-inkscape-font-specification:'Exo 2, Heavy';font-variant-ligatures:normal;font-variant-caps:normal;font-variant-numeric:normal;font-variant-east-asian:normal;letter-spacing:-0.452437px;fill:#5eaaa8;fill-opacity:1;stroke:none;stroke-width:0.264583"
         id="path43" />
      <path
         d="m 64.469424,163.65036 v 5.48215 q 0,0.20109 0.127,0.29633 0.137582,0.0847 0.402165,0.0847 h 0.359832 l 0.243416,1.41816 q -0.158749,0.0952 -0.455082,0.14817 -0.285749,0.0635 -0.592665,0.0953 -0.296332,0.0317 -0.507998,0.0317 -0.836081,0 -1.312329,-0.39158 -0.476249,-0.39159 -0.476249,-1.09008 v -6.07482 z"
         style="font-style:normal;font-variant:normal;font-weight:900;font-stretch:normal;font-size:10.5833px;line-height:0.85;font-family:'Exo 2';-inkscape-font-specification:'Exo 2, Heavy';font-variant-ligatures:normal;font-variant-caps:normal;font-variant-numeric:normal;font-variant-east-asian:normal;letter-spacing:-0.452437px;fill:#5eaaa8;fill-opacity:1;stroke:none;stroke-width:0.264583"
         id="path45" />
      <path
         d="m 68.398471,165.61886 q 1.492245,0 2.11666,0.47625 0.624414,0.47624 0.634998,1.40757 0.01058,0.74084 -0.444499,1.06892 -0.444499,0.32808 -1.608662,0.32808 h -2.846907 v -1.04775 h 2.222493 q 0.359832,0 0.455082,-0.0635 0.09525,-0.0741 0.09525,-0.33866 0,-0.254 -0.126999,-0.32808 -0.127,-0.0741 -0.433916,-0.0741 -0.306915,-0.0106 -0.465665,0.0635 -0.158749,0.0741 -0.222249,0.32808 -0.05292,0.24342 -0.05292,0.77259 0,0.48683 0.0635,0.76199 0.07408,0.27517 0.275166,0.39158 0.201083,0.11642 0.592665,0.11642 0.317499,0 0.888997,-0.0212 0.582081,-0.0212 1.259413,-0.0952 l 0.201082,1.3335 q -0.370415,0.1905 -0.793747,0.29633 -0.423332,0.10584 -0.878414,0.14817 -0.444499,0.0423 -0.920747,0.0423 -1.100663,0 -1.767411,-0.30691 -0.666748,-0.30692 -0.96308,-0.91017 -0.285749,-0.61383 -0.285749,-1.51341 0,-1.04775 0.296332,-1.66158 0.296332,-0.62441 0.952497,-0.89958 0.666748,-0.27516 1.756828,-0.27516 z"
         style="font-style:normal;font-variant:normal;font-weight:900;font-stretch:normal;font-size:10.5833px;line-height:0.85;font-family:'Exo 2';-inkscape-font-specification:'Exo 2, Heavy';font-variant-ligatures:normal;font-variant-caps:normal;font-variant-numeric:normal;font-variant-east-asian:normal;letter-spacing:-0.452437px;fill:#5eaaa8;fill-opacity:1;stroke:none;stroke-width:0.264583"
         id="path47" />
      <path
         d="m 74.031414,165.61886 q 0.328082,0 0.719664,0.0317 0.391582,0.0317 0.783164,0.11641 0.391583,0.0847 0.709081,0.24342 l -0.222249,1.37583 q -0.507998,0 -0.888997,0 -0.380999,0 -0.719664,0 -0.338666,0 -0.539749,0.0847 -0.190499,0.0847 -0.275165,0.30692 -0.07408,0.21167 -0.07408,0.62441 0,0.41275 0.07408,0.635 0.08467,0.22225 0.275165,0.30692 0.201083,0.0847 0.539749,0.0847 0.179916,0 0.444498,0 0.275166,-0.0106 0.603248,-0.0212 0.328083,-0.0212 0.656165,-0.0529 l 0.201083,1.38641 q -0.465666,0.24342 -1.079497,0.33867 -0.613831,0.10583 -1.227663,0.10583 -1.037163,0 -1.661578,-0.26458 -0.613831,-0.27517 -0.888997,-0.889 -0.264582,-0.61383 -0.264582,-1.62983 0,-1.02658 0.275165,-1.62982 0.275166,-0.61383 0.899581,-0.87842 0.624415,-0.27516 1.661578,-0.27516 z"
         style="font-style:normal;font-variant:normal;font-weight:900;font-stretch:normal;font-size:10.5833px;line-height:0.85;font-family:'Exo 2';-inkscape-font-specification:'Exo 2, Heavy';font-variant-ligatures:normal;font-variant-caps:normal;font-variant-numeric:normal;font-variant-east-asian:normal;letter-spacing:-0.452437px;fill:#5eaaa8;fill-opacity:1;stroke:none;stroke-width:0.264583"
         id="path49" />
      <path
         d="m 79.283372,164.38061 v 4.7519 q 0,0.20109 0.105833,0.29633 0.105833,0.0847 0.349249,0.0847 h 0.560915 l 0.243416,1.41816 q -0.22225,0.0952 -0.550332,0.14817 -0.328082,0.0635 -0.666748,0.0953 -0.328082,0.0317 -0.582081,0.0317 -0.772581,0 -1.227663,-0.39158 -0.455082,-0.39159 -0.455082,-1.09008 l -0.01058,-5.34457 z m 1.280579,1.38641 v 1.3335 h -4.402652 v -1.28058 l 1.015996,-0.0529 z"
         style="font-style:normal;font-variant:normal;font-weight:900;font-stretch:normal;font-size:10.5833px;line-height:0.85;font-family:'Exo 2';-inkscape-font-specification:'Exo 2, Heavy';font-variant-ligatures:normal;font-variant-caps:normal;font-variant-numeric:normal;font-variant-east-asian:normal;letter-spacing:-0.452437px;fill:#5eaaa8;fill-opacity:1;stroke:none;stroke-width:0.264583"
         id="path51" />
      <path
         d="m 89.385122,165.76702 -1.566328,4.77307 q -0.07408,0.23283 -0.264583,0.381 -0.179916,0.13758 -0.433915,0.13758 h -1.89441 q -0.254,0 -0.444499,-0.13758 -0.179916,-0.14817 -0.253999,-0.381 l -1.566329,-4.77307 h 2.349493 l 0.645581,2.92099 q 0.05292,0.24342 0.08467,0.49742 0.03175,0.254 0.0635,0.49741 h 0.137583 q 0.03175,-0.24341 0.07408,-0.49741 0.04233,-0.254 0.08467,-0.49742 l 0.634998,-2.92099 z"
         style="font-style:normal;font-variant:normal;font-weight:900;font-stretch:normal;font-size:10.5833px;line-height:0.85;font-family:'Exo 2';-inkscape-font-specification:'Exo 2, Heavy';font-variant-ligatures:normal;font-variant-caps:normal;font-variant-numeric:normal;font-variant-east-asian:normal;letter-spacing:-0.452437px;fill:#5eaaa8;fill-opacity:1;stroke:none;stroke-width:0.264583"
         id="path55" />
      <path
         d="m 92.044162,165.61886 q 1.492245,0 2.116659,0.47625 0.624415,0.47624 0.634998,1.40757 0.01058,0.74084 -0.444498,1.06892 -0.444499,0.32808 -1.608662,0.32808 h -2.846907 v -1.04775 h 2.222493 q 0.359832,0 0.455082,-0.0635 0.09525,-0.0741 0.09525,-0.33866 0,-0.254 -0.126999,-0.32808 -0.127,-0.0741 -0.433916,-0.0741 -0.306915,-0.0106 -0.465665,0.0635 -0.158749,0.0741 -0.222249,0.32808 -0.05292,0.24342 -0.05292,0.77259 0,0.48683 0.0635,0.76199 0.07408,0.27517 0.275166,0.39158 0.201083,0.11642 0.592665,0.11642 0.317499,0 0.888997,-0.0212 0.582081,-0.0212 1.259413,-0.0952 l 0.201082,1.3335 q -0.370415,0.1905 -0.793747,0.29633 -0.423332,0.10584 -0.878414,0.14817 -0.444499,0.0423 -0.920747,0.0423 -1.100663,0 -1.767411,-0.30691 -0.666748,-0.30692 -0.96308,-0.91017 -0.28575,-0.61383 -0.28575,-1.51341 0,-1.04775 0.296333,-1.66158 0.296332,-0.62441 0.952497,-0.89958 0.666748,-0.27516 1.756828,-0.27516 z"
         style="font-style:normal;font-variant:normal;font-weight:900;font-stretch:normal;font-size:10.5833px;line-height:0.85;font-family:'Exo 2';-inkscape-font-specification:'Exo 2, Heavy';font-variant-ligatures:normal;font-variant-caps:normal;font-variant-numeric:normal;font-variant-east-asian:normal;letter-spacing:-0.452437px;fill:#5eaaa8;fill-opacity:1;stroke:none;stroke-width:0.264583"
         id="path57" />
    </g>
  </g>
</svg>
